<mxfile host="Electron" agent="Mozilla/5.0 (Windows NT 10.0; Win64; x64) AppleWebKit/537.36 (KHTML, like Gecko) draw.io/24.7.8 Chrome/128.0.6613.36 Electron/32.0.1 Safari/537.36" version="24.7.8">
  <diagram name="Page-1" id="r8vcpAiL0mwjQ9U17mmM">
    <mxGraphModel dx="1219" dy="1813" grid="1" gridSize="10" guides="1" tooltips="1" connect="1" arrows="1" fold="1" page="1" pageScale="1" pageWidth="850" pageHeight="1100" math="0" shadow="0">
      <root>
        <mxCell id="0" />
        <mxCell id="1" parent="0" />
        <mxCell id="cbBREKOHVhZyVJ9AljdL-18" style="edgeStyle=orthogonalEdgeStyle;rounded=0;orthogonalLoop=1;jettySize=auto;html=1;exitX=0.5;exitY=1;exitDx=0;exitDy=0;entryX=0.5;entryY=0;entryDx=0;entryDy=0;" parent="1" source="cbBREKOHVhZyVJ9AljdL-1" target="cbBREKOHVhZyVJ9AljdL-2" edge="1">
          <mxGeometry relative="1" as="geometry" />
        </mxCell>
        <mxCell id="cbBREKOHVhZyVJ9AljdL-1" value="" style="ellipse;html=1;shape=endState;fillColor=#000000;strokeColor=#ff0000;" parent="1" vertex="1">
          <mxGeometry x="280" y="-310" width="30" height="30" as="geometry" />
        </mxCell>
        <mxCell id="cbBREKOHVhZyVJ9AljdL-19" style="edgeStyle=orthogonalEdgeStyle;rounded=0;orthogonalLoop=1;jettySize=auto;html=1;exitX=0.5;exitY=1;exitDx=0;exitDy=0;entryX=0.5;entryY=0;entryDx=0;entryDy=0;" parent="1" source="cbBREKOHVhZyVJ9AljdL-2" target="cbBREKOHVhZyVJ9AljdL-16" edge="1">
          <mxGeometry relative="1" as="geometry" />
        </mxCell>
        <mxCell id="cbBREKOHVhZyVJ9AljdL-2" value="Registration" style="rounded=1;whiteSpace=wrap;html=1;" parent="1" vertex="1">
          <mxGeometry x="200" y="-200" width="190" height="50" as="geometry" />
        </mxCell>
        <mxCell id="cbBREKOHVhZyVJ9AljdL-25" style="edgeStyle=orthogonalEdgeStyle;rounded=0;orthogonalLoop=1;jettySize=auto;html=1;exitX=1;exitY=0.5;exitDx=0;exitDy=0;entryX=0.5;entryY=1;entryDx=0;entryDy=0;" parent="1" source="cbBREKOHVhZyVJ9AljdL-16" target="cbBREKOHVhZyVJ9AljdL-23" edge="1">
          <mxGeometry relative="1" as="geometry" />
        </mxCell>
        <mxCell id="cbBREKOHVhZyVJ9AljdL-28" style="edgeStyle=orthogonalEdgeStyle;rounded=0;orthogonalLoop=1;jettySize=auto;html=1;exitX=0.5;exitY=1;exitDx=0;exitDy=0;entryX=0.5;entryY=0;entryDx=0;entryDy=0;" parent="1" source="cbBREKOHVhZyVJ9AljdL-16" target="cbBREKOHVhZyVJ9AljdL-26" edge="1">
          <mxGeometry relative="1" as="geometry" />
        </mxCell>
        <mxCell id="cbBREKOHVhZyVJ9AljdL-16" value="Validate" style="rhombus;whiteSpace=wrap;html=1;" parent="1" vertex="1">
          <mxGeometry x="205" y="-100" width="180" height="100" as="geometry" />
        </mxCell>
        <mxCell id="UsYnPqKXmD-sXTnixvMT-16" style="edgeStyle=orthogonalEdgeStyle;rounded=0;orthogonalLoop=1;jettySize=auto;html=1;exitX=0.5;exitY=1;exitDx=0;exitDy=0;entryX=0.5;entryY=0;entryDx=0;entryDy=0;" edge="1" parent="1" source="cbBREKOHVhZyVJ9AljdL-21" target="UsYnPqKXmD-sXTnixvMT-15">
          <mxGeometry relative="1" as="geometry" />
        </mxCell>
        <mxCell id="cbBREKOHVhZyVJ9AljdL-21" value="Canceled" style="rounded=1;whiteSpace=wrap;html=1;" parent="1" vertex="1">
          <mxGeometry x="620" y="910" width="190" height="50" as="geometry" />
        </mxCell>
        <mxCell id="cbBREKOHVhZyVJ9AljdL-24" style="edgeStyle=orthogonalEdgeStyle;rounded=0;orthogonalLoop=1;jettySize=auto;html=1;exitX=0;exitY=0.5;exitDx=0;exitDy=0;entryX=1;entryY=0.5;entryDx=0;entryDy=0;" parent="1" source="cbBREKOHVhZyVJ9AljdL-23" target="cbBREKOHVhZyVJ9AljdL-2" edge="1">
          <mxGeometry relative="1" as="geometry" />
        </mxCell>
        <mxCell id="cbBREKOHVhZyVJ9AljdL-23" value="Re Enter Details" style="rounded=1;whiteSpace=wrap;html=1;" parent="1" vertex="1">
          <mxGeometry x="530" y="-200" width="190" height="50" as="geometry" />
        </mxCell>
        <mxCell id="cbBREKOHVhZyVJ9AljdL-29" style="edgeStyle=orthogonalEdgeStyle;rounded=0;orthogonalLoop=1;jettySize=auto;html=1;exitX=0.5;exitY=1;exitDx=0;exitDy=0;entryX=0.5;entryY=0;entryDx=0;entryDy=0;" parent="1" source="cbBREKOHVhZyVJ9AljdL-26" target="cbBREKOHVhZyVJ9AljdL-27" edge="1">
          <mxGeometry relative="1" as="geometry" />
        </mxCell>
        <mxCell id="cbBREKOHVhZyVJ9AljdL-26" value="Login" style="rounded=1;whiteSpace=wrap;html=1;" parent="1" vertex="1">
          <mxGeometry x="200" y="120" width="190" height="50" as="geometry" />
        </mxCell>
        <mxCell id="cbBREKOHVhZyVJ9AljdL-31" style="edgeStyle=orthogonalEdgeStyle;rounded=0;orthogonalLoop=1;jettySize=auto;html=1;exitX=1;exitY=0.5;exitDx=0;exitDy=0;" parent="1" source="cbBREKOHVhZyVJ9AljdL-27" target="cbBREKOHVhZyVJ9AljdL-30" edge="1">
          <mxGeometry relative="1" as="geometry" />
        </mxCell>
        <mxCell id="cbBREKOHVhZyVJ9AljdL-35" style="edgeStyle=orthogonalEdgeStyle;rounded=0;orthogonalLoop=1;jettySize=auto;html=1;exitX=0.5;exitY=1;exitDx=0;exitDy=0;entryX=0.5;entryY=0;entryDx=0;entryDy=0;" parent="1" source="cbBREKOHVhZyVJ9AljdL-27" target="cbBREKOHVhZyVJ9AljdL-33" edge="1">
          <mxGeometry relative="1" as="geometry" />
        </mxCell>
        <mxCell id="cbBREKOHVhZyVJ9AljdL-27" value="Validate" style="rhombus;whiteSpace=wrap;html=1;" parent="1" vertex="1">
          <mxGeometry x="205" y="230" width="180" height="100" as="geometry" />
        </mxCell>
        <mxCell id="cbBREKOHVhZyVJ9AljdL-30" value="" style="ellipse;html=1;shape=endState;fillColor=#000000;strokeColor=#ff0000;" parent="1" vertex="1">
          <mxGeometry x="700" y="490" width="30" height="30" as="geometry" />
        </mxCell>
        <mxCell id="UsYnPqKXmD-sXTnixvMT-6" style="edgeStyle=orthogonalEdgeStyle;rounded=0;orthogonalLoop=1;jettySize=auto;html=1;exitX=1;exitY=0.5;exitDx=0;exitDy=0;entryX=0.462;entryY=-0.005;entryDx=0;entryDy=0;entryPerimeter=0;" edge="1" parent="1" source="cbBREKOHVhZyVJ9AljdL-32" target="cbBREKOHVhZyVJ9AljdL-21">
          <mxGeometry relative="1" as="geometry">
            <mxPoint x="720" y="910" as="targetPoint" />
          </mxGeometry>
        </mxCell>
        <mxCell id="UsYnPqKXmD-sXTnixvMT-11" style="edgeStyle=orthogonalEdgeStyle;rounded=0;orthogonalLoop=1;jettySize=auto;html=1;exitX=0.5;exitY=1;exitDx=0;exitDy=0;entryX=0.5;entryY=0;entryDx=0;entryDy=0;" edge="1" parent="1" source="cbBREKOHVhZyVJ9AljdL-32" target="UsYnPqKXmD-sXTnixvMT-10">
          <mxGeometry relative="1" as="geometry" />
        </mxCell>
        <mxCell id="cbBREKOHVhZyVJ9AljdL-32" value="Verify Ride" style="rhombus;whiteSpace=wrap;html=1;" parent="1" vertex="1">
          <mxGeometry x="205" y="680" width="180" height="100" as="geometry" />
        </mxCell>
        <mxCell id="cbBREKOHVhZyVJ9AljdL-36" style="edgeStyle=orthogonalEdgeStyle;rounded=0;orthogonalLoop=1;jettySize=auto;html=1;exitX=0.5;exitY=1;exitDx=0;exitDy=0;entryX=0.5;entryY=0;entryDx=0;entryDy=0;" parent="1" source="cbBREKOHVhZyVJ9AljdL-33" target="cbBREKOHVhZyVJ9AljdL-34" edge="1">
          <mxGeometry relative="1" as="geometry" />
        </mxCell>
        <mxCell id="cbBREKOHVhZyVJ9AljdL-33" value="Search Ride" style="rounded=1;whiteSpace=wrap;html=1;" parent="1" vertex="1">
          <mxGeometry x="200" y="470" width="190" height="50" as="geometry" />
        </mxCell>
        <mxCell id="cbBREKOHVhZyVJ9AljdL-37" style="edgeStyle=orthogonalEdgeStyle;rounded=0;orthogonalLoop=1;jettySize=auto;html=1;exitX=0.5;exitY=1;exitDx=0;exitDy=0;entryX=0.5;entryY=0;entryDx=0;entryDy=0;" parent="1" source="cbBREKOHVhZyVJ9AljdL-34" target="cbBREKOHVhZyVJ9AljdL-32" edge="1">
          <mxGeometry relative="1" as="geometry" />
        </mxCell>
        <mxCell id="cbBREKOHVhZyVJ9AljdL-34" value="Book Ride" style="rounded=1;whiteSpace=wrap;html=1;" parent="1" vertex="1">
          <mxGeometry x="200" y="570" width="190" height="50" as="geometry" />
        </mxCell>
        <mxCell id="UsYnPqKXmD-sXTnixvMT-1" value="Start" style="text;html=1;align=center;verticalAlign=middle;whiteSpace=wrap;rounded=0;" vertex="1" parent="1">
          <mxGeometry x="300" y="-315" width="75" height="40" as="geometry" />
        </mxCell>
        <mxCell id="UsYnPqKXmD-sXTnixvMT-2" value="Invalid" style="text;html=1;align=center;verticalAlign=middle;whiteSpace=wrap;rounded=0;" vertex="1" parent="1">
          <mxGeometry x="440" y="-80" width="75" height="30" as="geometry" />
        </mxCell>
        <mxCell id="UsYnPqKXmD-sXTnixvMT-3" value="Invalid" style="text;html=1;align=center;verticalAlign=middle;whiteSpace=wrap;rounded=0;" vertex="1" parent="1">
          <mxGeometry x="490" y="240" width="75" height="40" as="geometry" />
        </mxCell>
        <mxCell id="UsYnPqKXmD-sXTnixvMT-4" value="End" style="text;html=1;align=center;verticalAlign=middle;whiteSpace=wrap;rounded=0;" vertex="1" parent="1">
          <mxGeometry x="730" y="485" width="75" height="40" as="geometry" />
        </mxCell>
        <mxCell id="UsYnPqKXmD-sXTnixvMT-5" value="" style="ellipse;html=1;shape=endState;fillColor=#000000;strokeColor=#ff0000;" vertex="1" parent="1">
          <mxGeometry x="280" y="1070" width="30" height="30" as="geometry" />
        </mxCell>
        <mxCell id="UsYnPqKXmD-sXTnixvMT-8" value="No" style="text;html=1;align=center;verticalAlign=middle;whiteSpace=wrap;rounded=0;" vertex="1" parent="1">
          <mxGeometry x="500" y="690" width="75" height="40" as="geometry" />
        </mxCell>
        <mxCell id="UsYnPqKXmD-sXTnixvMT-13" style="edgeStyle=orthogonalEdgeStyle;rounded=0;orthogonalLoop=1;jettySize=auto;html=1;exitX=0.5;exitY=1;exitDx=0;exitDy=0;entryX=0.5;entryY=0;entryDx=0;entryDy=0;" edge="1" parent="1" source="UsYnPqKXmD-sXTnixvMT-10" target="UsYnPqKXmD-sXTnixvMT-5">
          <mxGeometry relative="1" as="geometry" />
        </mxCell>
        <mxCell id="UsYnPqKXmD-sXTnixvMT-10" value="Confirm" style="rounded=1;whiteSpace=wrap;html=1;" vertex="1" parent="1">
          <mxGeometry x="200" y="920" width="190" height="50" as="geometry" />
        </mxCell>
        <mxCell id="UsYnPqKXmD-sXTnixvMT-12" value="Yes" style="text;html=1;align=center;verticalAlign=middle;whiteSpace=wrap;rounded=0;" vertex="1" parent="1">
          <mxGeometry x="310" y="800" width="75" height="40" as="geometry" />
        </mxCell>
        <mxCell id="UsYnPqKXmD-sXTnixvMT-15" value="" style="ellipse;html=1;shape=endState;fillColor=#000000;strokeColor=#ff0000;" vertex="1" parent="1">
          <mxGeometry x="700" y="1030" width="30" height="30" as="geometry" />
        </mxCell>
        <mxCell id="UsYnPqKXmD-sXTnixvMT-17" value="End" style="text;html=1;align=center;verticalAlign=middle;whiteSpace=wrap;rounded=0;" vertex="1" parent="1">
          <mxGeometry x="300" y="1065" width="75" height="40" as="geometry" />
        </mxCell>
        <mxCell id="UsYnPqKXmD-sXTnixvMT-18" value="End" style="text;html=1;align=center;verticalAlign=middle;whiteSpace=wrap;rounded=0;" vertex="1" parent="1">
          <mxGeometry x="735" y="1025" width="75" height="40" as="geometry" />
        </mxCell>
        <mxCell id="UsYnPqKXmD-sXTnixvMT-19" value="Yes" style="text;html=1;align=center;verticalAlign=middle;whiteSpace=wrap;rounded=0;" vertex="1" parent="1">
          <mxGeometry x="310" y="340" width="75" height="40" as="geometry" />
        </mxCell>
        <mxCell id="UsYnPqKXmD-sXTnixvMT-20" value="Yes" style="text;html=1;align=center;verticalAlign=middle;whiteSpace=wrap;rounded=0;" vertex="1" parent="1">
          <mxGeometry x="300" y="20" width="75" height="40" as="geometry" />
        </mxCell>
      </root>
    </mxGraphModel>
  </diagram>
</mxfile>
